<?xml version="1.0" encoding="UTF-8" standalone="no"?>
<!DOCTYPE svg PUBLIC "-//W3C//DTD SVG 1.1//EN"
 "http://www.w3.org/Graphics/SVG/1.1/DTD/svg11.dtd">
<!-- Generated by graphviz version 2.36.0 (20140111.2315)
 -->
<!-- Title: IVectorBase Pages: 1 -->
<svg width="424pt" height="402pt"
 viewBox="0.00 0.00 424.00 402.00" xmlns="http://www.w3.org/2000/svg" xmlns:xlink="http://www.w3.org/1999/xlink">
<g id="graph0" class="graph" transform="scale(1 1) rotate(0) translate(4 398)">
<title>IVectorBase</title>
<polygon fill="white" stroke="none" points="-4,4 -4,-398 420,-398 420,4 -4,4"/>
<!-- Node1 -->
<g id="node1" class="node"><title>Node1</title>
<polygon fill="#bfbfbf" stroke="black" points="0.5,-200.5 0.5,-219.5 71.5,-219.5 71.5,-200.5 0.5,-200.5"/>
<text text-anchor="middle" x="36" y="-207.5" font-family="Helvetica,sans-Serif" font-size="10.00">IVectorBase</text>
</g>
<!-- Node2 -->
<g id="node2" class="node"><title>Node2</title>
<g id="a_node2"><a xlink:href="class_i_f_p_s_display_control.html" target="_top" xlink:title="Performance display meter, based on code from NanoVG This is a special control that lives outside the...">
<polygon fill="white" stroke="black" points="126,-374.5 126,-393.5 230,-393.5 230,-374.5 126,-374.5"/>
<text text-anchor="middle" x="178" y="-381.5" font-family="Helvetica,sans-Serif" font-size="10.00">IFPSDisplayControl</text>
</a>
</g>
</g>
<!-- Node1&#45;&gt;Node2 -->
<g id="edge1" class="edge"><title>Node1&#45;&gt;Node2</title>
<path fill="none" stroke="midnightblue" d="M40.5107,-229.917C47.3996,-262.99 65.8543,-329.141 108,-365 113.205,-369.428 119.358,-372.831 125.812,-375.444"/>
<polygon fill="midnightblue" stroke="midnightblue" points="43.8705,-228.856 38.5365,-219.702 36.9977,-230.184 43.8705,-228.856"/>
</g>
<!-- Node3 -->
<g id="node3" class="node"><title>Node3</title>
<g id="a_node3"><a xlink:href="class_i_v_button_control.html" target="_top" xlink:title="A vector button/momentary switch control. ">
<polygon fill="white" stroke="black" points="135,-336.5 135,-355.5 221,-355.5 221,-336.5 135,-336.5"/>
<text text-anchor="middle" x="178" y="-343.5" font-family="Helvetica,sans-Serif" font-size="10.00">IVButtonControl</text>
</a>
</g>
</g>
<!-- Node1&#45;&gt;Node3 -->
<g id="edge2" class="edge"><title>Node1&#45;&gt;Node3</title>
<path fill="none" stroke="midnightblue" d="M43.4353,-229.068C53.221,-255.14 74.343,-301.571 108,-327 115.832,-332.917 125.401,-336.992 134.889,-339.797"/>
<polygon fill="midnightblue" stroke="midnightblue" points="46.6973,-227.796 40.0329,-219.559 40.1065,-230.154 46.6973,-227.796"/>
</g>
<!-- Node4 -->
<g id="node4" class="node"><title>Node4</title>
<g id="a_node4"><a xlink:href="class_i_v_keyboard_control.html" target="_top" xlink:title="Vectorial keyboard control. ">
<polygon fill="white" stroke="black" points="128.5,-298.5 128.5,-317.5 227.5,-317.5 227.5,-298.5 128.5,-298.5"/>
<text text-anchor="middle" x="178" y="-305.5" font-family="Helvetica,sans-Serif" font-size="10.00">IVKeyboardControl</text>
</a>
</g>
</g>
<!-- Node1&#45;&gt;Node4 -->
<g id="edge3" class="edge"><title>Node1&#45;&gt;Node4</title>
<path fill="none" stroke="midnightblue" d="M48.6555,-228.132C61.1899,-246.186 82.7554,-273.394 108,-289 114.235,-292.855 121.262,-295.942 128.383,-298.411"/>
<polygon fill="midnightblue" stroke="midnightblue" points="51.4317,-225.988 42.9524,-219.635 45.6196,-229.889 51.4317,-225.988"/>
</g>
<!-- Node5 -->
<g id="node5" class="node"><title>Node5</title>
<g id="a_node5"><a xlink:href="class_i_v_knob_control.html" target="_top" xlink:title="A vector knob control drawn using graphics primitves. ">
<polygon fill="white" stroke="black" points="138,-260.5 138,-279.5 218,-279.5 218,-260.5 138,-260.5"/>
<text text-anchor="middle" x="178" y="-267.5" font-family="Helvetica,sans-Serif" font-size="10.00">IVKnobControl</text>
</a>
</g>
</g>
<!-- Node1&#45;&gt;Node5 -->
<g id="edge4" class="edge"><title>Node1&#45;&gt;Node5</title>
<path fill="none" stroke="midnightblue" d="M59.7749,-225.152C73.3378,-233.659 91.1426,-243.948 108,-251 117.399,-254.932 127.857,-258.294 137.73,-261.049"/>
<polygon fill="midnightblue" stroke="midnightblue" points="61.4345,-222.059 51.1267,-219.609 57.6573,-227.952 61.4345,-222.059"/>
</g>
<!-- Node6 -->
<g id="node6" class="node"><title>Node6</title>
<g id="a_node6"><a xlink:href="class_i_v_radio_button_control.html" target="_top" xlink:title="A vector switch control. ">
<polygon fill="white" stroke="black" points="122,-222.5 122,-241.5 234,-241.5 234,-222.5 122,-222.5"/>
<text text-anchor="middle" x="178" y="-229.5" font-family="Helvetica,sans-Serif" font-size="10.00">IVRadioButtonControl</text>
</a>
</g>
</g>
<!-- Node1&#45;&gt;Node6 -->
<g id="edge5" class="edge"><title>Node1&#45;&gt;Node6</title>
<path fill="none" stroke="midnightblue" d="M81.5494,-217.001C94.3476,-219.012 108.46,-221.229 121.817,-223.328"/>
<polygon fill="midnightblue" stroke="midnightblue" points="82.0289,-213.533 71.6068,-215.438 80.9422,-220.448 82.0289,-213.533"/>
</g>
<!-- Node7 -->
<g id="node7" class="node"><title>Node7</title>
<g id="a_node7"><a xlink:href="class_i_v_scope_control.html" target="_top" xlink:title="Vectorial multichannel capable oscilloscope control. ">
<polygon fill="white" stroke="black" points="108,-173 108,-203 248,-203 248,-173 108,-173"/>
<text text-anchor="start" x="116" y="-191" font-family="Helvetica,sans-Serif" font-size="10.00">IVScopeControl&lt; MAXNC,</text>
<text text-anchor="middle" x="178" y="-180" font-family="Helvetica,sans-Serif" font-size="10.00"> MAXBUF, QUEUE_SIZE &gt;</text>
</a>
</g>
</g>
<!-- Node1&#45;&gt;Node7 -->
<g id="edge6" class="edge"><title>Node1&#45;&gt;Node7</title>
<path fill="none" stroke="midnightblue" d="M81.5149,-203.005C89.8996,-201.687 98.8492,-200.281 107.782,-198.877"/>
<polygon fill="midnightblue" stroke="midnightblue" points="80.9422,-199.552 71.6068,-204.562 82.0289,-206.467 80.9422,-199.552"/>
</g>
<!-- Node8 -->
<g id="node8" class="node"><title>Node8</title>
<g id="a_node8"><a xlink:href="class_i_v_slider_control.html" target="_top" xlink:title="A vector slider control. ">
<polygon fill="white" stroke="black" points="136.5,-134.5 136.5,-153.5 219.5,-153.5 219.5,-134.5 136.5,-134.5"/>
<text text-anchor="middle" x="178" y="-141.5" font-family="Helvetica,sans-Serif" font-size="10.00">IVSliderControl</text>
</a>
</g>
</g>
<!-- Node1&#45;&gt;Node8 -->
<g id="edge7" class="edge"><title>Node1&#45;&gt;Node8</title>
<path fill="none" stroke="midnightblue" d="M57.6463,-194.304C71.3369,-184.495 90.0274,-172.21 108,-164 116.962,-159.906 126.964,-156.434 136.51,-153.59"/>
<polygon fill="midnightblue" stroke="midnightblue" points="55.427,-191.591 49.4295,-200.325 59.5645,-197.238 55.427,-191.591"/>
</g>
<!-- Node10 -->
<g id="node10" class="node"><title>Node10</title>
<g id="a_node10"><a xlink:href="class_i_v_switch_control.html" target="_top" xlink:title="A vector switch control. ">
<polygon fill="white" stroke="black" points="134,-96.5 134,-115.5 222,-115.5 222,-96.5 134,-96.5"/>
<text text-anchor="middle" x="178" y="-103.5" font-family="Helvetica,sans-Serif" font-size="10.00">IVSwitchControl</text>
</a>
</g>
</g>
<!-- Node1&#45;&gt;Node10 -->
<g id="edge9" class="edge"><title>Node1&#45;&gt;Node10</title>
<path fill="none" stroke="midnightblue" d="M47.5886,-191.657C59.7361,-172.241 81.4422,-142.09 108,-125 115.732,-120.024 124.759,-116.338 133.687,-113.611"/>
<polygon fill="midnightblue" stroke="midnightblue" points="44.4437,-190.095 42.2729,-200.465 50.4368,-193.712 44.4437,-190.095"/>
</g>
<!-- Node12 -->
<g id="node12" class="node"><title>Node12</title>
<g id="a_node12"><a xlink:href="class_i_v_track_control_base.html" target="_top" xlink:title="A base class for mult&#45;strip/track controls, such as multi&#45;sliders, meters. ">
<polygon fill="white" stroke="black" points="125.5,-55.5 125.5,-74.5 230.5,-74.5 230.5,-55.5 125.5,-55.5"/>
<text text-anchor="middle" x="178" y="-62.5" font-family="Helvetica,sans-Serif" font-size="10.00">IVTrackControlBase</text>
</a>
</g>
</g>
<!-- Node1&#45;&gt;Node12 -->
<g id="edge11" class="edge"><title>Node1&#45;&gt;Node12</title>
<path fill="none" stroke="midnightblue" d="M43.0428,-190.919C52.5597,-163.904 73.5849,-114.715 108,-87 114.561,-81.7163 122.414,-77.6913 130.434,-74.6282"/>
<polygon fill="midnightblue" stroke="midnightblue" points="39.7234,-189.81 39.8568,-200.404 46.359,-192.039 39.7234,-189.81"/>
</g>
<!-- Node15 -->
<g id="node15" class="node"><title>Node15</title>
<g id="a_node15"><a xlink:href="class_i_v_x_y_pad_control.html" target="_top" xlink:title="IVXYPadControl">
<polygon fill="white" stroke="black" points="133.5,-17.5 133.5,-36.5 222.5,-36.5 222.5,-17.5 133.5,-17.5"/>
<text text-anchor="middle" x="178" y="-24.5" font-family="Helvetica,sans-Serif" font-size="10.00">IVXYPadControl</text>
</a>
</g>
</g>
<!-- Node1&#45;&gt;Node15 -->
<g id="edge14" class="edge"><title>Node1&#45;&gt;Node15</title>
<path fill="none" stroke="midnightblue" d="M39.9815,-189.904C46.1947,-155.277 63.8169,-84.3986 108,-46 115.127,-39.8057 124.104,-35.6147 133.204,-32.7834"/>
<polygon fill="midnightblue" stroke="midnightblue" points="36.4644,-189.721 38.2899,-200.157 43.3711,-190.86 36.4644,-189.721"/>
</g>
<!-- Node9 -->
<g id="node9" class="node"><title>Node9</title>
<g id="a_node9"><a xlink:href="class_i_v_range_slider_control.html" target="_top" xlink:title="IVRangeSliderControl">
<polygon fill="white" stroke="black" points="294.5,-136.5 294.5,-155.5 405.5,-155.5 405.5,-136.5 294.5,-136.5"/>
<text text-anchor="middle" x="350" y="-143.5" font-family="Helvetica,sans-Serif" font-size="10.00">IVRangeSliderControl</text>
</a>
</g>
</g>
<!-- Node8&#45;&gt;Node9 -->
<g id="edge8" class="edge"><title>Node8&#45;&gt;Node9</title>
<path fill="none" stroke="midnightblue" d="M229.758,-144.597C250.154,-144.837 273.709,-145.114 294.469,-145.358"/>
<polygon fill="midnightblue" stroke="midnightblue" points="229.76,-141.097 219.719,-144.479 229.677,-148.097 229.76,-141.097"/>
</g>
<!-- Node11 -->
<g id="node11" class="node"><title>Node11</title>
<g id="a_node11"><a xlink:href="class_i_v_toggle_control.html" target="_top" xlink:title="IVToggleControl">
<polygon fill="white" stroke="black" points="306.5,-98.5 306.5,-117.5 393.5,-117.5 393.5,-98.5 306.5,-98.5"/>
<text text-anchor="middle" x="350" y="-105.5" font-family="Helvetica,sans-Serif" font-size="10.00">IVToggleControl</text>
</a>
</g>
</g>
<!-- Node10&#45;&gt;Node11 -->
<g id="edge10" class="edge"><title>Node10&#45;&gt;Node11</title>
<path fill="none" stroke="midnightblue" d="M232.614,-106.631C256.392,-106.91 283.982,-107.235 306.33,-107.498"/>
<polygon fill="midnightblue" stroke="midnightblue" points="232.379,-103.128 222.338,-106.51 232.296,-110.127 232.379,-103.128"/>
</g>
<!-- Node13 -->
<g id="node13" class="node"><title>Node13</title>
<g id="a_node13"><a xlink:href="class_i_v_meter_control.html" target="_top" xlink:title="Vectorial multichannel capable meter control. ">
<polygon fill="white" stroke="black" points="284.5,-49 284.5,-79 415.5,-79 415.5,-49 284.5,-49"/>
<text text-anchor="start" x="292.5" y="-67" font-family="Helvetica,sans-Serif" font-size="10.00">IVMeterControl&lt; MAXNC,</text>
<text text-anchor="middle" x="350" y="-56" font-family="Helvetica,sans-Serif" font-size="10.00"> QUEUE_SIZE &gt;</text>
</a>
</g>
</g>
<!-- Node12&#45;&gt;Node13 -->
<g id="edge12" class="edge"><title>Node12&#45;&gt;Node13</title>
<path fill="none" stroke="midnightblue" d="M241.039,-64.6351C255.179,-64.5519 270.235,-64.4633 284.477,-64.3795"/>
<polygon fill="midnightblue" stroke="midnightblue" points="240.909,-61.1357 230.929,-64.6945 240.95,-68.1356 240.909,-61.1357"/>
</g>
<!-- Node14 -->
<g id="node14" class="node"><title>Node14</title>
<g id="a_node14"><a xlink:href="class_i_v_multi_slider_control.html" target="_top" xlink:title="A vectorial multi&#45;slider control. ">
<polygon fill="white" stroke="black" points="298,-0 298,-30 402,-30 402,-0 298,-0"/>
<text text-anchor="start" x="306" y="-18" font-family="Helvetica,sans-Serif" font-size="10.00">IVMultiSliderControl</text>
<text text-anchor="middle" x="350" y="-7" font-family="Helvetica,sans-Serif" font-size="10.00">&lt; MAXNC &gt;</text>
</a>
</g>
</g>
<!-- Node12&#45;&gt;Node14 -->
<g id="edge13" class="edge"><title>Node12&#45;&gt;Node14</title>
<path fill="none" stroke="midnightblue" d="M224.34,-52.7175C232.239,-50.52 240.367,-48.2219 248,-46 265.347,-40.9506 284.297,-35.1975 301.049,-30.0298"/>
<polygon fill="midnightblue" stroke="midnightblue" points="223.219,-49.3961 214.513,-55.4338 225.084,-56.1432 223.219,-49.3961"/>
</g>
</g>
</svg>
